<svg width="359" height="440" viewBox="0 0 359 440" fill="none" xmlns="http://www.w3.org/2000/svg">
<path d="M0 215.7C6.1 230.3 13.3 244.5 21.5 258C29.5 271.3 38.3 284 47.9 296.1C57.4 308.1 67.7 319.4 78.6 330C89.5 340.6 101.1 350.4 113.3 359.5C116.4 361.7 119.4 364 122.6 366.1C125.8 368.2 128.9 370.4 132.1 372.5C135.3 374.6 138.5 376.7 141.8 378.6C143.5 379.6 145 380.6 146.7 381.6L151.7 384.5C153.4 385.5 155 386.4 156.7 387.3C158.4 388.2 160 389.2 161.7 390.1C165.1 391.9 168.5 393.8 171.9 395.5C178.7 399.1 185.7 402.3 192.8 405.6C206.9 412 221.4 417.9 236.2 423.4C239.9 424.9 243.6 426.1 247.3 427.5C251 428.9 254.8 430.1 258.6 431.5C262.4 432.9 266.2 434.1 269.9 435.4C273.7 436.7 277.5 438 281.3 439.4C277.3 439.6 273.2 439.6 269.2 439.6C265.2 439.5 261.1 439.4 257.1 439.1C255.1 439 253.1 438.8 251 438.7C249 438.5 247 438.4 244.9 438.2C242.9 438 240.9 437.7 238.9 437.5C236.9 437.3 234.9 437 232.9 436.7C216.7 434.4 200.7 430.9 185.1 426.1C153.8 416.5 123.5 401.7 96.9 381.8C70.2 361.9 47.1 337 30.1 308.5C21.6 294.3 14.6 279.3 9.3 263.6C6.7 255.8 4.6 247.9 2.9 239.9C2.1 235.9 1.4 231.9 0.9 227.8C0.3 223.7 0 219.7 0 215.7Z" fill="url(#paint0_linear)"/>
<defs>
<linearGradient id="paint0_linear" x1="140.65" y1="215.7" x2="140.65" y2="439.6" gradientUnits="userSpaceOnUse">
<stop stop-color="#39EF7E"/>
<stop offset="1" stop-color="#01B09B"/>
</linearGradient>
</defs>
</svg>
