<svg width="524" height="525" viewBox="0 0 524 525" fill="none" xmlns="http://www.w3.org/2000/svg">
<path d="M92.8125 177.472C105.455 162.18 123.89 156.637 140.151 151.752C148.857 149.135 157.088 146.659 164.099 142.978C179.936 134.658 189.838 124.793 199.415 115.249C214.889 99.8175 230.896 83.8638 268.242 78.358C305.849 72.8191 334.808 79.3507 356.77 98.3325C378.312 116.943 389.765 145.403 397.33 168.107C402.276 182.925 411.188 196.446 420.629 210.748C428.836 223.191 437.322 236.05 443.472 250.386C459.229 287.154 457.514 313.068 437.715 337.018C430.084 346.257 420.314 354.638 409.972 363.508C400.836 371.355 391.388 379.46 381.99 389.235C381.085 390.178 380.165 391.205 379.274 392.284C374.946 397.519 371.38 403.613 367.604 410.047C363.573 416.922 359.412 424.023 354.003 430.562C347.534 438.394 340.261 444.142 331.794 448.123C305.62 460.438 288.252 452.892 271.465 445.602C264.623 442.63 257.558 439.564 249.491 437.628C239.199 435.165 228.371 435.201 216.899 435.232C199.367 435.289 181.235 435.344 163.743 426.258C130.075 408.767 124.338 376.686 122.946 354.081C122.493 346.825 122.739 340.079 122.971 333.556C123.458 319.992 123.876 308.283 117.669 296.837C115.814 293.416 111.433 289.629 107.196 285.971C102.112 281.58 96.8549 277.03 93.1422 271.192C79.687 250.055 72.0719 216.469 85.3626 189.07C87.4325 184.86 89.9358 180.96 92.8125 177.472Z" stroke="white" stroke-width="2" stroke-miterlimit="10" stroke-dasharray="25 25"/>
<g filter="url(#filter0_b)">
<path d="M266.416 84.9641C212.605 92.8946 211.514 123.888 170.046 145.669C146.42 158.084 112.957 156.743 99.0405 185.4C88.5778 206.956 93.4421 234.89 105.929 254.508C111.763 263.671 124.688 270.367 129.677 279.56C139.967 298.533 134.541 316.862 135.848 338.177C137.365 362.748 144.152 385.936 169.672 399.193C194.562 412.129 222.873 402.882 249.362 409.23C277.091 415.877 291.231 434.203 321.655 419.901C345.851 408.522 350.45 382.652 366.754 365.696C408.42 322.346 452.486 311.008 423.554 243.513C411.449 215.278 388.64 192.47 379.227 164.217C362.469 113.985 337.805 74.4435 266.416 84.9641Z" fill="#333333" fill-opacity="0.5"/>
</g>
<defs>
<filter id="filter0_b" x="13.8982" y="5.67603" width="491.021" height="491.633" filterUnits="userSpaceOnUse" color-interpolation-filters="sRGB">
<feFlood flood-opacity="0" result="BackgroundImageFix"/>
<feGaussianBlur in="BackgroundImage" stdDeviation="5"/>
<feComposite in2="SourceAlpha" operator="in" result="effect1_backgroundBlur"/>
<feBlend mode="normal" in="SourceGraphic" in2="effect1_backgroundBlur" result="shape"/>
</filter>
</defs>
</svg>
