<svg width="712" height="663" viewBox="0 0 712 663" fill="none" xmlns="http://www.w3.org/2000/svg">
<path fill-rule="evenodd" clip-rule="evenodd" d="M389.867 146.468C412.828 162.157 443.499 157.974 471.12 161.581C508.148 166.417 546.259 159.155 581.485 171.492C625.895 187.045 681.039 200.234 701.673 242.323C721.398 282.557 680.225 328.7 680.499 373.46C680.811 424.472 728.738 478.755 703.392 523.104C678.118 567.327 611.997 566.173 562.672 579.625C523.653 590.267 483.947 594.568 443.491 593.986C408.111 593.477 374.587 569.017 339.996 576.422C276.15 590.089 216.151 691.355 162.651 654.104C109.754 617.272 174.967 528.336 178.87 464.233C180.903 430.845 199.789 392.221 180.256 364.991C134.914 301.783 18.7258 293.624 2.06748 217.767C-9.89713 163.284 81.7967 141.942 122.957 104.07C160.976 69.0881 185.849 -6.51825 236.996 1.60628C307.267 12.7688 331.213 106.391 389.867 146.468Z" stroke="white" stroke-width="2" stroke-miterlimit="9.99856" stroke-dasharray="25 25"/>
<g filter="url(#filter0_b)">
<path fill-rule="evenodd" clip-rule="evenodd" d="M375.54 172.403C395.035 185.797 421.076 182.226 444.528 185.305C475.966 189.433 508.324 183.234 538.232 193.766C575.938 207.044 622.758 218.304 640.277 254.236C657.024 288.585 622.067 327.977 622.299 366.19C622.565 409.74 663.257 456.082 641.737 493.944C620.278 531.697 564.139 530.712 522.259 542.197C489.13 551.281 455.418 554.953 421.07 554.456C391.03 554.022 362.567 533.14 333.197 539.462C278.989 551.13 228.047 637.582 182.624 605.781C137.711 574.337 193.08 498.41 196.394 443.684C198.121 415.18 214.156 382.207 197.571 358.96C159.073 304.998 60.4246 298.033 46.281 233.272C36.1225 186.759 113.975 168.539 148.922 136.207C181.202 106.342 202.32 41.796 245.745 48.7321C305.409 58.2617 325.741 138.189 375.54 172.403Z" fill="#333333" fill-opacity="0.5"/>
</g>
<defs>
<filter id="filter0_b" x="30.3746" y="33.2145" width="632.64" height="594.55" filterUnits="userSpaceOnUse" color-interpolation-filters="sRGB">
<feFlood flood-opacity="0" result="BackgroundImageFix"/>
<feGaussianBlur in="BackgroundImage" stdDeviation="7.5"/>
<feComposite in2="SourceAlpha" operator="in" result="effect1_backgroundBlur"/>
<feBlend mode="normal" in="SourceGraphic" in2="effect1_backgroundBlur" result="shape"/>
</filter>
</defs>
</svg>
