<svg width="359" height="440" viewBox="0 0 359 440" fill="none" xmlns="http://www.w3.org/2000/svg">
<path d="M338.8 392.4C325.3 406.1 309.7 412.6 292.6 410.8C280.9 409.6 271.5 404 264 395.5C265.7 394.6 267.4 393.7 269 392.7C286.1 408.7 308.7 398 320.5 383.5C346.8 351.3 331.5 324.7 331.5 324.7C331.5 324.7 329.8 327.3 326.5 331.7L326.2 332.1L325.6 332.9C325.4 333.1 325.2 333.4 325 333.6C324.2 334.6 323.4 335.6 322.5 336.7C322.2 337.1 321.9 337.5 321.5 337.9L320.7 338.8C320.6 339 320.4 339.1 320.3 339.3C320 339.6 319.8 340 319.5 340.3L319.1 340.8C316.7 343.6 313.9 346.7 310.9 349.9L310.4 350.5L309.9 351L309.4 351.6L308.9 352.1C307.7 353.3 306.5 354.6 305.2 355.8L304.6 356.4L304.1 356.9L303.7 357.3C302.1 358.8 300.5 360.3 298.8 361.9C298.5 362.2 298.2 362.4 297.9 362.7C295.9 364.5 293.9 366.3 291.7 368L291 368.6C286.8 372.1 282.2 375.5 277.4 378.8L276 379.7C275 380.4 274 381 273 381.7L272.4 382.1C271.9 382.4 271.5 382.7 271 383L269.7 383.8C269.1 384.2 268.5 384.5 267.9 384.9L267.3 385.2L266 386L265 386.6L264 387.2C262.5 388.1 260.9 388.9 259.3 389.8L258.9 390C258.4 390.2 258 390.5 257.5 390.7C256.3 391.3 255.1 391.9 253.8 392.5L252.1 393.3L251.6 393.5L249.8 394.3L248.6 394.8C248.2 395 247.9 395.1 247.5 395.3L245.6 396.1L244.6 396.5L243.2 397L241.8 397.5C240.8 397.9 239.9 398.2 238.9 398.6L237.7 399L236.3 399.5L236.5 399.3L237.1 398.7L237.2 398.6L237.7 398.1L237.9 397.9C238.8 397 240.1 395.7 241.6 394L242.3 393.2C242.7 392.7 243.2 392.2 243.6 391.7C243.8 391.4 244.1 391.2 244.3 390.9C244.4 390.8 244.5 390.6 244.7 390.5L245.4 389.7L245.8 389.2L246.5 388.4C246.9 387.9 247.3 387.5 247.7 387L248.1 386.5C248.8 385.7 249.4 384.8 250.1 384C250.3 383.8 250.5 383.5 250.7 383.2L251.4 382.4C251.5 382.2 251.7 382 251.8 381.8C252.2 381.2 252.7 380.6 253.2 380C254.4 378.3 255.6 376.6 256.8 374.8C258 373 259.1 371.3 260.2 369.4C260.5 368.9 260.7 368.5 261 368L261.4 367.3L262.2 365.9C262.5 365.4 262.7 365 263 364.5L263.8 363.1C263.8 363 263.9 362.9 263.9 362.8C264 362.7 264 362.6 264 362.5C264.2 362.2 264.3 361.9 264.5 361.5C264.7 361.2 264.8 360.9 265 360.5C265.3 359.9 265.6 359.2 265.9 358.5C266.2 357.9 266.6 357 266.9 356.2C267.2 355.4 267.6 354.7 267.9 353.9C268.2 353.1 268.5 352.4 268.8 351.6C269 351.1 269.2 350.5 269.4 350C269.5 349.7 269.6 349.5 269.7 349.2C269.9 348.7 270.1 348.2 270.2 347.6C270.3 347.4 270.4 347.1 270.4 346.9L270.5 346.7L270.7 346C270.8 345.8 270.8 345.5 270.9 345.3C271.1 344.5 271.3 343.8 271.5 343C271.6 342.6 271.7 342.1 271.8 341.7C271.8 341.5 271.9 341.4 271.9 341.2V341C272 340.7 272 340.4 272.1 340.2C272.1 340.2 272.1 340.2 272.1 340.1L272.3 339.2C272.3 338.9 272.4 338.7 272.5 338.4C272.5 338.3 272.5 338.2 272.6 338C272.9 336.5 273.1 335.1 273.2 333.6V333.3C273.2 333 273.3 332.7 273.3 332.5L273.4 331.5C274.3 319.8 271.1 308.2 264.3 298.7C261.3 294.4 257.7 290.5 253.6 287.3C254 276.4 254.7 264.7 255.9 252.3C264.1 255.1 271.5 259.7 277.5 265.9C297.1 285.7 294.7 313.2 289.8 331.5C289.7 331.9 289.6 332.2 289.5 332.6C289.3 333.5 289 334.4 288.8 335.2C288.7 335.5 288.6 335.9 288.5 336.2C288.5 336.2 288.5 336.2 288.5 336.3C288.4 336.8 288.2 337.2 288.1 337.7C288 338 287.9 338.3 287.8 338.6C287.7 338.9 287.6 339.2 287.5 339.5L287.3 339.9L287.2 340.3C287.1 340.6 287 340.9 286.9 341.1C286.8 341.3 286.7 341.6 286.6 341.9L286.4 342.6C286.4 342.7 286.3 342.8 286.3 342.9C286.3 343 286.2 343.1 286.2 343.2C286.2 343.3 286.1 343.4 286.1 343.5L285.8 344.4L285.6 345C285.5 345.2 285.5 345.3 285.4 345.5C285.2 346 285 346.4 284.9 346.8C284.8 346.9 284.8 347.1 284.7 347.2C284.5 347.7 284.3 348.2 284.1 348.6C284 348.8 283.9 349 283.8 349.2L283.7 349.5C283.7 349.5 283.7 349.5 283.7 349.6C283.7 349.7 283.6 349.7 283.6 349.8C283.3 350.5 283.1 350.9 283 351L283.1 350.9L283.2 350.8C284.2 349.8 288.2 346.2 293.4 340.5L294.2 339.6L294.3 339.5L295 338.7C297 336.5 299.1 334.1 301.3 331.4C315 314.9 332 289.7 335.4 262.8C335.4 262.8 385.4 344.5 338.4 392.2" fill="url(#paint0_linear)"/>
<defs>
<linearGradient id="paint0_linear" x1="297.419" y1="252.3" x2="297.419" y2="411.094" gradientUnits="userSpaceOnUse">
<stop stop-color="#39EF7E"/>
<stop offset="1" stop-color="#01B09B"/>
</linearGradient>
</defs>
</svg>
