<svg width="133" height="76" viewBox="0 0 133 76" fill="none" xmlns="http://www.w3.org/2000/svg">
<path d="M126.5 0V13M120 6.5L133 6.5L120 6.5Z" stroke="white" stroke-miterlimit="10"/>
<path d="M126.5 32V45M120 38.5H133H120Z" stroke="white" stroke-miterlimit="10"/>
<path d="M126.5 63V76M120 69.5H133H120Z" stroke="white" stroke-miterlimit="10"/>
<path d="M126.5 0V13M120 6.5L133 6.5L120 6.5Z" stroke="white" stroke-width="2" stroke-miterlimit="10"/>
<path d="M126.5 32V45M120 38.5H133H120Z" stroke="white" stroke-width="2" stroke-miterlimit="10"/>
<path d="M126.5 63V76M120 69.5H133H120Z" stroke="white" stroke-width="2" stroke-miterlimit="10"/>
<path d="M96.5 0V13M90 6.5L103 6.5L90 6.5Z" stroke="white" stroke-miterlimit="10"/>
<path d="M96.5 32V45M90 38.5H103H90Z" stroke="white" stroke-miterlimit="10"/>
<path d="M96.5 63V76M90 69.5H103H90Z" stroke="white" stroke-miterlimit="10"/>
<path d="M96.5 0V13M90 6.5L103 6.5L90 6.5Z" stroke="white" stroke-width="2" stroke-miterlimit="10"/>
<path d="M96.5 32V45M90 38.5H103H90Z" stroke="white" stroke-width="2" stroke-miterlimit="10"/>
<path d="M96.5 63V76M90 69.5H103H90Z" stroke="white" stroke-width="2" stroke-miterlimit="10"/>
<path d="M66.5 32V45M60 38.5H73H60Z" stroke="white" stroke-miterlimit="10"/>
<path d="M66.5 63V76M60 69.5H73H60Z" stroke="white" stroke-miterlimit="10"/>
<path d="M66.5 32V45M60 38.5H73H60Z" stroke="white" stroke-width="2" stroke-miterlimit="10"/>
<path d="M66.5 63V76M60 69.5H73H60Z" stroke="white" stroke-width="2" stroke-miterlimit="10"/>
<path d="M36.5 32V45M30 38.5H43H30Z" stroke="white" stroke-miterlimit="10"/>
<path d="M36.5 63V76M30 69.5H43H30Z" stroke="white" stroke-miterlimit="10"/>
<path d="M36.5 32V45M30 38.5H43H30Z" stroke="white" stroke-width="2" stroke-miterlimit="10"/>
<path d="M36.5 63V76M30 69.5H43H30Z" stroke="white" stroke-width="2" stroke-miterlimit="10"/>
<path d="M6.5 32L6.5 45M0 38.5H13H0Z" stroke="white" stroke-miterlimit="10"/>
<path d="M6.5 63L6.5 76M0 69.5H13H0Z" stroke="white" stroke-miterlimit="10"/>
<path d="M6.5 32L6.5 45M0 38.5H13H0Z" stroke="white" stroke-width="2" stroke-miterlimit="10"/>
<path d="M6.5 63L6.5 76M0 69.5H13H0Z" stroke="white" stroke-width="2" stroke-miterlimit="10"/>
</svg>
