<svg width="359" height="440" viewBox="0 0 359 440" fill="none" xmlns="http://www.w3.org/2000/svg">
<path d="M254.1 366.1C252.8 368.2 251.4 370.3 250.1 372.3C239.7 347.4 236 315 235.1 289.1C235 286.6 234.9 284.3 234.9 281.9C234.9 281.6 234.9 281.2 234.9 280.9V279.3C234.9 278.2 234.9 277.1 234.9 276.1C234.9 274.6 234.9 273.1 234.9 271.7C234.9 270.9 234.9 270 234.9 269.2C234.9 265.4 234.9 259.5 234.8 252.3C234.8 251.9 234.8 251.5 234.8 251V249.9C234.8 249.6 234.8 249.4 234.8 249.1C234.8 248.8 234.8 248.4 234.8 248C234.8 247.6 234.8 247 234.8 246.5C234.8 245.7 234.8 244.8 234.7 243.9C234.7 242.5 234.6 241 234.6 239.5C234.6 239.1 234.6 238.7 234.6 238.3C233.1 196.3 227.6 128.9 208.8 99.7C208.8 99.7 192.5 124.8 126 158.1C34.5999 204 54.6999 270 55.0999 271.4C54.4999 270 23.7999 199.9 122.1 128.9C208 66.9 200.1 0 200.1 0C200.1 0 279.9 13.6 252.7 220.5C251.9 226.6 251.2 232.6 250.5 238.3C250.5 238.7 250.4 239.1 250.4 239.5C250.4 239.7 250.4 239.9 250.3 240.1C250.2 241 250.1 241.9 250 242.8C249.9 243.7 249.8 244.6 249.7 245.5C249.6 246.1 249.6 246.7 249.5 247.3C249.4 248.4 249.3 249.5 249.2 250.5L249 252.4C248.8 254.7 248.6 256.9 248.4 259.1C248.3 260.2 248.2 261.2 248.1 262.3L247.9 264.6C247.9 265 247.8 265.4 247.8 265.8L247.6 268.7C247.6 269.1 247.5 269.5 247.5 269.9C247.5 270.6 247.4 271.4 247.4 272.1L247.2 275.1C247.1 276.1 247.1 277.2 247 278.2C246.9 279.7 246.8 281.3 246.8 282.7C246.7 284.8 246.6 286.9 246.6 288.9C246.6 289.2 246.6 289.6 246.6 290C245.6 324.3 248.6 348.9 254 366" fill="url(#paint0_linear)"/>
<defs>
<linearGradient id="paint0_linear" x1="154.227" y1="0" x2="154.227" y2="372.3" gradientUnits="userSpaceOnUse">
<stop stop-color="#39EF7E"/>
<stop offset="1" stop-color="#01B09B"/>
</linearGradient>
</defs>
</svg>
