<svg width="196" height="191" viewBox="0 0 196 191" fill="none" xmlns="http://www.w3.org/2000/svg">
<path d="M2.11914 4.24002C3.28998 4.24002 4.23914 3.29084 4.23914 2.12C4.23914 0.949151 3.28998 0 2.11914 0C0.948297 0 -0.000854492 0.949151 -0.000854492 2.12C-0.000854492 3.29084 0.948297 4.24002 2.11914 4.24002Z" fill="white"/>
<path d="M21.2191 4.24002C22.39 4.24002 23.3391 3.29084 23.3391 2.12C23.3391 0.949151 22.39 0 21.2191 0C20.0483 0 19.0991 0.949151 19.0991 2.12C19.0991 3.29084 20.0483 4.24002 21.2191 4.24002Z" fill="white"/>
<path d="M40.3192 4.24002C41.4901 4.24002 42.4392 3.29084 42.4392 2.12C42.4392 0.949151 41.4901 0 40.3192 0C39.1484 0 38.1992 0.949151 38.1992 2.12C38.1992 3.29084 39.1484 4.24002 40.3192 4.24002Z" fill="white"/>
<path d="M59.4191 4.24002C60.59 4.24002 61.5391 3.29084 61.5391 2.12C61.5391 0.949151 60.59 0 59.4191 0C58.2483 0 57.2991 0.949151 57.2991 2.12C57.2991 3.29084 58.2483 4.24002 59.4191 4.24002Z" fill="white"/>
<path d="M80.6392 2.12C80.6392 3.29 79.6892 4.24002 78.5192 4.24002C77.3492 4.24002 76.3992 3.29 76.3992 2.12C76.3992 0.949995 77.3492 0 78.5192 0C79.6892 0 80.6392 0.949995 80.6392 2.12Z" fill="white"/>
<path d="M97.6091 4.24002C98.78 4.24002 99.7292 3.29084 99.7292 2.12C99.7292 0.949151 98.78 0 97.6091 0C96.4383 0 95.4891 0.949151 95.4891 2.12C95.4891 3.29084 96.4383 4.24002 97.6091 4.24002Z" fill="white"/>
<path d="M116.709 4.24002C117.88 4.24002 118.829 3.29084 118.829 2.12C118.829 0.949151 117.88 0 116.709 0C115.538 0 114.589 0.949151 114.589 2.12C114.589 3.29084 115.538 4.24002 116.709 4.24002Z" fill="white"/>
<path d="M135.809 4.24002C136.98 4.24002 137.929 3.29084 137.929 2.12C137.929 0.949151 136.98 0 135.809 0C134.638 0 133.689 0.949151 133.689 2.12C133.689 3.29084 134.638 4.24002 135.809 4.24002Z" fill="white"/>
<path d="M154.909 4.24002C156.08 4.24002 157.029 3.29084 157.029 2.12C157.029 0.949151 156.08 0 154.909 0C153.738 0 152.789 0.949151 152.789 2.12C152.789 3.29084 153.738 4.24002 154.909 4.24002Z" fill="white"/>
<path d="M174.009 4.24002C175.18 4.24002 176.129 3.29084 176.129 2.12C176.129 0.949151 175.18 0 174.009 0C172.838 0 171.889 0.949151 171.889 2.12C171.889 3.29084 172.838 4.24002 174.009 4.24002Z" fill="white"/>
<path d="M193.109 4.24002C194.28 4.24002 195.229 3.29084 195.229 2.12C195.229 0.949151 194.28 0 193.109 0C191.938 0 190.989 0.949151 190.989 2.12C190.989 3.29084 191.938 4.24002 193.109 4.24002Z" fill="white"/>
<path d="M2.11914 21.22C3.28998 21.22 4.23914 20.2708 4.23914 19.1C4.23914 17.9291 3.28998 16.98 2.11914 16.98C0.948297 16.98 -0.000854492 17.9291 -0.000854492 19.1C-0.000854492 20.2708 0.948297 21.22 2.11914 21.22Z" fill="white"/>
<path d="M21.2191 21.22C22.39 21.22 23.3391 20.2708 23.3391 19.1C23.3391 17.9291 22.39 16.98 21.2191 16.98C20.0483 16.98 19.0991 17.9291 19.0991 19.1C19.0991 20.2708 20.0483 21.22 21.2191 21.22Z" fill="white"/>
<path d="M40.3192 21.22C41.4901 21.22 42.4392 20.2708 42.4392 19.1C42.4392 17.9291 41.4901 16.98 40.3192 16.98C39.1484 16.98 38.1992 17.9291 38.1992 19.1C38.1992 20.2708 39.1484 21.22 40.3192 21.22Z" fill="white"/>
<path d="M59.4191 21.22C60.59 21.22 61.5391 20.2708 61.5391 19.1C61.5391 17.9291 60.59 16.98 59.4191 16.98C58.2483 16.98 57.2991 17.9291 57.2991 19.1C57.2991 20.2708 58.2483 21.22 59.4191 21.22Z" fill="white"/>
<path d="M80.6392 19.1C80.6392 20.27 79.6892 21.22 78.5192 21.22C77.3492 21.22 76.3992 20.27 76.3992 19.1C76.3992 17.93 77.3492 16.98 78.5192 16.98C79.6892 16.98 80.6392 17.93 80.6392 19.1Z" fill="white"/>
<path d="M97.6091 21.22C98.78 21.22 99.7292 20.2708 99.7292 19.1C99.7292 17.9291 98.78 16.98 97.6091 16.98C96.4383 16.98 95.4891 17.9291 95.4891 19.1C95.4891 20.2708 96.4383 21.22 97.6091 21.22Z" fill="white"/>
<path d="M116.709 21.22C117.88 21.22 118.829 20.2708 118.829 19.1C118.829 17.9291 117.88 16.98 116.709 16.98C115.538 16.98 114.589 17.9291 114.589 19.1C114.589 20.2708 115.538 21.22 116.709 21.22Z" fill="white"/>
<path d="M135.809 21.22C136.98 21.22 137.929 20.2708 137.929 19.1C137.929 17.9291 136.98 16.98 135.809 16.98C134.638 16.98 133.689 17.9291 133.689 19.1C133.689 20.2708 134.638 21.22 135.809 21.22Z" fill="white"/>
<path d="M154.909 21.22C156.08 21.22 157.029 20.2708 157.029 19.1C157.029 17.9291 156.08 16.98 154.909 16.98C153.738 16.98 152.789 17.9291 152.789 19.1C152.789 20.2708 153.738 21.22 154.909 21.22Z" fill="white"/>
<path d="M174.009 21.22C175.18 21.22 176.129 20.2708 176.129 19.1C176.129 17.9291 175.18 16.98 174.009 16.98C172.838 16.98 171.889 17.9291 171.889 19.1C171.889 20.2708 172.838 21.22 174.009 21.22Z" fill="white"/>
<path d="M193.109 21.22C194.28 21.22 195.229 20.2708 195.229 19.1C195.229 17.9291 194.28 16.98 193.109 16.98C191.938 16.98 190.989 17.9291 190.989 19.1C190.989 20.2708 191.938 21.22 193.109 21.22Z" fill="white"/>
<path d="M2.11914 38.19C3.28998 38.19 4.23914 37.2409 4.23914 36.07C4.23914 34.8992 3.28998 33.95 2.11914 33.95C0.948297 33.95 -0.000854492 34.8992 -0.000854492 36.07C-0.000854492 37.2409 0.948297 38.19 2.11914 38.19Z" fill="white"/>
<path d="M21.2191 38.19C22.39 38.19 23.3391 37.2409 23.3391 36.07C23.3391 34.8992 22.39 33.95 21.2191 33.95C20.0483 33.95 19.0991 34.8992 19.0991 36.07C19.0991 37.2409 20.0483 38.19 21.2191 38.19Z" fill="white"/>
<path d="M40.3192 38.19C41.4901 38.19 42.4392 37.2409 42.4392 36.07C42.4392 34.8992 41.4901 33.95 40.3192 33.95C39.1484 33.95 38.1992 34.8992 38.1992 36.07C38.1992 37.2409 39.1484 38.19 40.3192 38.19Z" fill="white"/>
<path d="M59.4191 38.19C60.59 38.19 61.5391 37.2409 61.5391 36.07C61.5391 34.8992 60.59 33.95 59.4191 33.95C58.2483 33.95 57.2991 34.8992 57.2991 36.07C57.2991 37.2409 58.2483 38.19 59.4191 38.19Z" fill="white"/>
<path d="M80.6392 36.07C80.6392 37.24 79.6892 38.19 78.5192 38.19C77.3492 38.19 76.3992 37.24 76.3992 36.07C76.3992 34.9 77.3492 33.95 78.5192 33.95C79.6892 33.95 80.6392 34.9 80.6392 36.07Z" fill="white"/>
<path d="M97.6091 38.19C98.78 38.19 99.7292 37.2409 99.7292 36.07C99.7292 34.8992 98.78 33.95 97.6091 33.95C96.4383 33.95 95.4891 34.8992 95.4891 36.07C95.4891 37.2409 96.4383 38.19 97.6091 38.19Z" fill="white"/>
<path d="M116.709 38.19C117.88 38.19 118.829 37.2409 118.829 36.07C118.829 34.8992 117.88 33.95 116.709 33.95C115.538 33.95 114.589 34.8992 114.589 36.07C114.589 37.2409 115.538 38.19 116.709 38.19Z" fill="white"/>
<path d="M135.809 38.19C136.98 38.19 137.929 37.2409 137.929 36.07C137.929 34.8992 136.98 33.95 135.809 33.95C134.638 33.95 133.689 34.8992 133.689 36.07C133.689 37.2409 134.638 38.19 135.809 38.19Z" fill="white"/>
<path d="M154.909 38.19C156.08 38.19 157.029 37.2409 157.029 36.07C157.029 34.8992 156.08 33.95 154.909 33.95C153.738 33.95 152.789 34.8992 152.789 36.07C152.789 37.2409 153.738 38.19 154.909 38.19Z" fill="white"/>
<path d="M174.009 38.19C175.18 38.19 176.129 37.2409 176.129 36.07C176.129 34.8992 175.18 33.95 174.009 33.95C172.838 33.95 171.889 34.8992 171.889 36.07C171.889 37.2409 172.838 38.19 174.009 38.19Z" fill="white"/>
<path d="M193.109 38.19C194.28 38.19 195.229 37.2409 195.229 36.07C195.229 34.8992 194.28 33.95 193.109 33.95C191.938 33.95 190.989 34.8992 190.989 36.07C190.989 37.2409 191.938 38.19 193.109 38.19Z" fill="white"/>
<path d="M4.23914 53.05C4.23914 54.22 3.28914 55.17 2.11914 55.17C0.949141 55.17 -0.000854492 54.22 -0.000854492 53.05C-0.000854492 51.88 0.949141 50.9301 2.11914 50.9301C3.28914 50.9301 4.23914 51.88 4.23914 53.05Z" fill="white"/>
<path d="M23.3391 53.05C23.3391 54.22 22.3891 55.17 21.2191 55.17C20.0491 55.17 19.0991 54.22 19.0991 53.05C19.0991 51.88 20.0491 50.9301 21.2191 50.9301C22.3891 50.9301 23.3391 51.88 23.3391 53.05Z" fill="white"/>
<path d="M42.4392 53.05C42.4392 54.22 41.4892 55.17 40.3192 55.17C39.1492 55.17 38.1992 54.22 38.1992 53.05C38.1992 51.88 39.1492 50.9301 40.3192 50.9301C41.4892 50.9301 42.4392 51.88 42.4392 53.05Z" fill="white"/>
<path d="M61.5391 53.05C61.5391 54.22 60.5891 55.17 59.4191 55.17C58.2491 55.17 57.2991 54.22 57.2991 53.05C57.2991 51.88 58.2491 50.9301 59.4191 50.9301C60.5891 50.9301 61.5391 51.88 61.5391 53.05Z" fill="white"/>
<path d="M80.6392 53.05C80.6392 54.22 79.6892 55.17 78.5192 55.17C77.3492 55.17 76.3992 54.22 76.3992 53.05C76.3992 51.88 77.3492 50.9301 78.5192 50.9301C79.6892 50.9301 80.6392 51.88 80.6392 53.05Z" fill="white"/>
<path d="M99.7391 53.05C99.7391 54.22 98.7891 55.17 97.6191 55.17C96.4491 55.17 95.4991 54.22 95.4991 53.05C95.4991 51.88 96.4491 50.9301 97.6191 50.9301C98.7791 50.9301 99.7391 51.88 99.7391 53.05Z" fill="white"/>
<path d="M118.829 53.05C118.829 54.22 117.879 55.17 116.709 55.17C115.539 55.17 114.589 54.22 114.589 53.05C114.589 51.88 115.539 50.9301 116.709 50.9301C117.879 50.9301 118.829 51.88 118.829 53.05Z" fill="white"/>
<path d="M137.929 53.05C137.929 54.22 136.979 55.17 135.809 55.17C134.639 55.17 133.689 54.22 133.689 53.05C133.689 51.88 134.639 50.9301 135.809 50.9301C136.979 50.9301 137.929 51.88 137.929 53.05Z" fill="white"/>
<path d="M157.029 53.05C157.029 54.22 156.079 55.17 154.909 55.17C153.739 55.17 152.789 54.22 152.789 53.05C152.789 51.88 153.739 50.9301 154.909 50.9301C156.079 50.9301 157.029 51.88 157.029 53.05Z" fill="white"/>
<path d="M176.129 53.05C176.129 54.22 175.179 55.17 174.009 55.17C172.839 55.17 171.889 54.22 171.889 53.05C171.889 51.88 172.839 50.9301 174.009 50.9301C175.179 50.9301 176.129 51.88 176.129 53.05Z" fill="white"/>
<path d="M195.229 53.05C195.229 54.22 194.279 55.17 193.109 55.17C191.939 55.17 190.989 54.22 190.989 53.05C190.989 51.88 191.939 50.9301 193.109 50.9301C194.279 50.9301 195.229 51.88 195.229 53.05Z" fill="white"/>
<path d="M4.23914 70.03C4.23914 71.2 3.28914 72.15 2.11914 72.15C0.949141 72.15 -0.000854492 71.2 -0.000854492 70.03C-0.000854492 68.86 0.949141 67.91 2.11914 67.91C3.28914 67.9 4.23914 68.85 4.23914 70.03Z" fill="white"/>
<path d="M23.3391 70.03C23.3391 71.2 22.3891 72.15 21.2191 72.15C20.0491 72.15 19.0991 71.2 19.0991 70.03C19.0991 68.86 20.0491 67.91 21.2191 67.91C22.3891 67.9 23.3391 68.85 23.3391 70.03Z" fill="white"/>
<path d="M42.4392 70.03C42.4392 71.2 41.4892 72.15 40.3192 72.15C39.1492 72.15 38.1992 71.2 38.1992 70.03C38.1992 68.86 39.1492 67.91 40.3192 67.91C41.4892 67.9 42.4392 68.85 42.4392 70.03Z" fill="white"/>
<path d="M61.5391 70.03C61.5391 71.2 60.5891 72.15 59.4191 72.15C58.2491 72.15 57.2991 71.2 57.2991 70.03C57.2991 68.86 58.2491 67.91 59.4191 67.91C60.5891 67.9 61.5391 68.85 61.5391 70.03Z" fill="white"/>
<path d="M80.6392 70.03C80.6392 71.2 79.6892 72.15 78.5192 72.15C77.3492 72.15 76.3992 71.2 76.3992 70.03C76.3992 68.86 77.3492 67.91 78.5192 67.91C79.6892 67.9 80.6392 68.85 80.6392 70.03Z" fill="white"/>
<path d="M99.7391 70.03C99.7391 71.2 98.7891 72.15 97.6191 72.15C96.4491 72.15 95.4991 71.2 95.4991 70.03C95.4991 68.86 96.4491 67.91 97.6191 67.91C98.7791 67.9 99.7391 68.85 99.7391 70.03Z" fill="white"/>
<path d="M118.829 70.03C118.829 71.2 117.879 72.15 116.709 72.15C115.539 72.15 114.589 71.2 114.589 70.03C114.589 68.86 115.539 67.91 116.709 67.91C117.879 67.9 118.829 68.85 118.829 70.03Z" fill="white"/>
<path d="M137.929 70.0299C137.929 71.1999 136.979 72.1499 135.809 72.1499C134.639 72.1499 133.689 71.1999 133.689 70.0299C133.689 68.8599 134.639 67.9099 135.809 67.9099C136.979 67.9099 137.929 68.8499 137.929 70.0299Z" fill="white"/>
<path d="M157.029 70.03C157.029 71.2 156.079 72.15 154.909 72.15C153.739 72.15 152.789 71.2 152.789 70.03C152.789 68.86 153.739 67.91 154.909 67.91C156.079 67.9 157.029 68.85 157.029 70.03Z" fill="white"/>
<path d="M176.129 70.03C176.129 71.2 175.179 72.15 174.009 72.15C172.839 72.15 171.889 71.2 171.889 70.03C171.889 68.86 172.839 67.91 174.009 67.91C175.179 67.9 176.129 68.85 176.129 70.03Z" fill="white"/>
<path d="M195.229 70.03C195.229 71.2 194.279 72.15 193.109 72.15C191.939 72.15 190.989 71.2 190.989 70.03C190.989 68.86 191.939 67.91 193.109 67.91C194.279 67.9 195.229 68.85 195.229 70.03Z" fill="white"/>
<path d="M2.11914 89.12C3.28998 89.12 4.23914 88.1708 4.23914 87C4.23914 85.8292 3.28998 84.88 2.11914 84.88C0.948297 84.88 -0.000854492 85.8292 -0.000854492 87C-0.000854492 88.1708 0.948297 89.12 2.11914 89.12Z" fill="white"/>
<path d="M21.2191 89.12C22.39 89.12 23.3391 88.1708 23.3391 87C23.3391 85.8292 22.39 84.88 21.2191 84.88C20.0483 84.88 19.0991 85.8292 19.0991 87C19.0991 88.1708 20.0483 89.12 21.2191 89.12Z" fill="white"/>
<path d="M40.3192 89.12C41.4901 89.12 42.4392 88.1708 42.4392 87C42.4392 85.8292 41.4901 84.88 40.3192 84.88C39.1484 84.88 38.1992 85.8292 38.1992 87C38.1992 88.1708 39.1484 89.12 40.3192 89.12Z" fill="white"/>
<path d="M59.4191 89.12C60.59 89.12 61.5391 88.1708 61.5391 87C61.5391 85.8292 60.59 84.88 59.4191 84.88C58.2483 84.88 57.2991 85.8292 57.2991 87C57.2991 88.1708 58.2483 89.12 59.4191 89.12Z" fill="white"/>
<path d="M80.6392 87C80.6392 88.17 79.6892 89.12 78.5192 89.12C77.3492 89.12 76.3992 88.17 76.3992 87C76.3992 85.83 77.3492 84.88 78.5192 84.88C79.6892 84.88 80.6392 85.83 80.6392 87Z" fill="white"/>
<path d="M97.6091 89.12C98.78 89.12 99.7292 88.1708 99.7292 87C99.7292 85.8292 98.78 84.88 97.6091 84.88C96.4383 84.88 95.4891 85.8292 95.4891 87C95.4891 88.1708 96.4383 89.12 97.6091 89.12Z" fill="white"/>
<path d="M116.709 89.12C117.88 89.12 118.829 88.1708 118.829 87C118.829 85.8292 117.88 84.88 116.709 84.88C115.538 84.88 114.589 85.8292 114.589 87C114.589 88.1708 115.538 89.12 116.709 89.12Z" fill="white"/>
<path d="M135.809 89.12C136.98 89.12 137.929 88.1708 137.929 87C137.929 85.8292 136.98 84.88 135.809 84.88C134.638 84.88 133.689 85.8292 133.689 87C133.689 88.1708 134.638 89.12 135.809 89.12Z" fill="white"/>
<path d="M154.909 89.12C156.08 89.12 157.029 88.1708 157.029 87C157.029 85.8292 156.08 84.88 154.909 84.88C153.738 84.88 152.789 85.8292 152.789 87C152.789 88.1708 153.738 89.12 154.909 89.12Z" fill="white"/>
<path d="M174.009 89.12C175.18 89.12 176.129 88.1708 176.129 87C176.129 85.8292 175.18 84.88 174.009 84.88C172.838 84.88 171.889 85.8292 171.889 87C171.889 88.1708 172.838 89.12 174.009 89.12Z" fill="white"/>
<path d="M193.109 89.12C194.28 89.12 195.229 88.1708 195.229 87C195.229 85.8292 194.28 84.88 193.109 84.88C191.938 84.88 190.989 85.8292 190.989 87C190.989 88.1708 191.938 89.12 193.109 89.12Z" fill="white"/>
<path d="M2.11914 106.1C3.28998 106.1 4.23914 105.151 4.23914 103.98C4.23914 102.809 3.28998 101.86 2.11914 101.86C0.948297 101.86 -0.000854492 102.809 -0.000854492 103.98C-0.000854492 105.151 0.948297 106.1 2.11914 106.1Z" fill="white"/>
<path d="M21.2191 106.1C22.39 106.1 23.3391 105.151 23.3391 103.98C23.3391 102.809 22.39 101.86 21.2191 101.86C20.0483 101.86 19.0991 102.809 19.0991 103.98C19.0991 105.151 20.0483 106.1 21.2191 106.1Z" fill="white"/>
<path d="M40.3192 106.1C41.4901 106.1 42.4392 105.151 42.4392 103.98C42.4392 102.809 41.4901 101.86 40.3192 101.86C39.1484 101.86 38.1992 102.809 38.1992 103.98C38.1992 105.151 39.1484 106.1 40.3192 106.1Z" fill="white"/>
<path d="M59.4191 106.1C60.59 106.1 61.5391 105.151 61.5391 103.98C61.5391 102.809 60.59 101.86 59.4191 101.86C58.2483 101.86 57.2991 102.809 57.2991 103.98C57.2991 105.151 58.2483 106.1 59.4191 106.1Z" fill="white"/>
<path d="M80.6392 103.98C80.6392 105.15 79.6892 106.1 78.5192 106.1C77.3492 106.1 76.3992 105.15 76.3992 103.98C76.3992 102.81 77.3492 101.86 78.5192 101.86C79.6892 101.86 80.6392 102.81 80.6392 103.98Z" fill="white"/>
<path d="M97.6091 106.1C98.78 106.1 99.7292 105.151 99.7292 103.98C99.7292 102.809 98.78 101.86 97.6091 101.86C96.4383 101.86 95.4891 102.809 95.4891 103.98C95.4891 105.151 96.4383 106.1 97.6091 106.1Z" fill="white"/>
<path d="M116.709 106.1C117.88 106.1 118.829 105.151 118.829 103.98C118.829 102.809 117.88 101.86 116.709 101.86C115.538 101.86 114.589 102.809 114.589 103.98C114.589 105.151 115.538 106.1 116.709 106.1Z" fill="white"/>
<path d="M135.809 106.1C136.98 106.1 137.929 105.151 137.929 103.98C137.929 102.809 136.98 101.86 135.809 101.86C134.638 101.86 133.689 102.809 133.689 103.98C133.689 105.151 134.638 106.1 135.809 106.1Z" fill="white"/>
<path d="M154.909 106.1C156.08 106.1 157.029 105.151 157.029 103.98C157.029 102.809 156.08 101.86 154.909 101.86C153.738 101.86 152.789 102.809 152.789 103.98C152.789 105.151 153.738 106.1 154.909 106.1Z" fill="white"/>
<path d="M174.009 106.1C175.18 106.1 176.129 105.151 176.129 103.98C176.129 102.809 175.18 101.86 174.009 101.86C172.838 101.86 171.889 102.809 171.889 103.98C171.889 105.151 172.838 106.1 174.009 106.1Z" fill="white"/>
<path d="M193.109 106.1C194.28 106.1 195.229 105.151 195.229 103.98C195.229 102.809 194.28 101.86 193.109 101.86C191.938 101.86 190.989 102.809 190.989 103.98C190.989 105.151 191.938 106.1 193.109 106.1Z" fill="white"/>
<path d="M4.23914 120.96C4.23914 122.13 3.28914 123.08 2.11914 123.08C0.949141 123.08 -0.000854492 122.13 -0.000854492 120.96C-0.000854492 119.79 0.949141 118.84 2.11914 118.84C3.28914 118.83 4.23914 119.78 4.23914 120.96Z" fill="white"/>
<path d="M23.3391 120.96C23.3391 122.13 22.3891 123.08 21.2191 123.08C20.0491 123.08 19.0991 122.13 19.0991 120.96C19.0991 119.79 20.0491 118.84 21.2191 118.84C22.3891 118.83 23.3391 119.78 23.3391 120.96Z" fill="white"/>
<path d="M42.4392 120.96C42.4392 122.13 41.4892 123.08 40.3192 123.08C39.1492 123.08 38.1992 122.13 38.1992 120.96C38.1992 119.79 39.1492 118.84 40.3192 118.84C41.4892 118.83 42.4392 119.78 42.4392 120.96Z" fill="white"/>
<path d="M61.5391 120.96C61.5391 122.13 60.5891 123.08 59.4191 123.08C58.2491 123.08 57.2991 122.13 57.2991 120.96C57.2991 119.79 58.2491 118.84 59.4191 118.84C60.5891 118.83 61.5391 119.78 61.5391 120.96Z" fill="white"/>
<path d="M80.6392 120.96C80.6392 122.13 79.6892 123.08 78.5192 123.08C77.3492 123.08 76.3992 122.13 76.3992 120.96C76.3992 119.79 77.3492 118.84 78.5192 118.84C79.6892 118.83 80.6392 119.78 80.6392 120.96Z" fill="white"/>
<path d="M99.7391 120.96C99.7391 122.13 98.7891 123.08 97.6191 123.08C96.4491 123.08 95.4991 122.13 95.4991 120.96C95.4991 119.79 96.4491 118.84 97.6191 118.84C98.7791 118.83 99.7391 119.78 99.7391 120.96Z" fill="white"/>
<path d="M118.829 120.96C118.829 122.13 117.879 123.08 116.709 123.08C115.539 123.08 114.589 122.13 114.589 120.96C114.589 119.79 115.539 118.84 116.709 118.84C117.879 118.83 118.829 119.78 118.829 120.96Z" fill="white"/>
<path d="M137.929 120.96C137.929 122.13 136.979 123.08 135.809 123.08C134.639 123.08 133.689 122.13 133.689 120.96C133.689 119.79 134.639 118.84 135.809 118.84C136.979 118.84 137.929 119.78 137.929 120.96Z" fill="white"/>
<path d="M157.029 120.96C157.029 122.13 156.079 123.08 154.909 123.08C153.739 123.08 152.789 122.13 152.789 120.96C152.789 119.79 153.739 118.84 154.909 118.84C156.079 118.83 157.029 119.78 157.029 120.96Z" fill="white"/>
<path d="M176.129 120.96C176.129 122.13 175.179 123.08 174.009 123.08C172.839 123.08 171.889 122.13 171.889 120.96C171.889 119.79 172.839 118.84 174.009 118.84C175.179 118.83 176.129 119.78 176.129 120.96Z" fill="white"/>
<path d="M195.229 120.96C195.229 122.13 194.279 123.08 193.109 123.08C191.939 123.08 190.989 122.13 190.989 120.96C190.989 119.79 191.939 118.84 193.109 118.84C194.279 118.83 195.229 119.78 195.229 120.96Z" fill="white"/>
<path d="M4.23914 137.93C4.23914 139.1 3.28914 140.05 2.11914 140.05C0.949141 140.05 -0.000854492 139.1 -0.000854492 137.93C-0.000854492 136.76 0.949141 135.81 2.11914 135.81C3.28914 135.81 4.23914 136.76 4.23914 137.93Z" fill="white"/>
<path d="M23.3391 137.93C23.3391 139.1 22.3891 140.05 21.2191 140.05C20.0491 140.05 19.0991 139.1 19.0991 137.93C19.0991 136.76 20.0491 135.81 21.2191 135.81C22.3891 135.81 23.3391 136.76 23.3391 137.93Z" fill="white"/>
<path d="M42.4392 137.93C42.4392 139.1 41.4892 140.05 40.3192 140.05C39.1492 140.05 38.1992 139.1 38.1992 137.93C38.1992 136.76 39.1492 135.81 40.3192 135.81C41.4892 135.81 42.4392 136.76 42.4392 137.93Z" fill="white"/>
<path d="M61.5391 137.93C61.5391 139.1 60.5891 140.05 59.4191 140.05C58.2491 140.05 57.2991 139.1 57.2991 137.93C57.2991 136.76 58.2491 135.81 59.4191 135.81C60.5891 135.81 61.5391 136.76 61.5391 137.93Z" fill="white"/>
<path d="M80.6392 137.93C80.6392 139.1 79.6892 140.05 78.5192 140.05C77.3492 140.05 76.3992 139.1 76.3992 137.93C76.3992 136.76 77.3492 135.81 78.5192 135.81C79.6892 135.81 80.6392 136.76 80.6392 137.93Z" fill="white"/>
<path d="M99.7391 137.93C99.7391 139.1 98.7891 140.05 97.6191 140.05C96.4491 140.05 95.4991 139.1 95.4991 137.93C95.4991 136.76 96.4491 135.81 97.6191 135.81C98.7791 135.81 99.7391 136.76 99.7391 137.93Z" fill="white"/>
<path d="M118.829 137.93C118.829 139.1 117.879 140.05 116.709 140.05C115.539 140.05 114.589 139.1 114.589 137.93C114.589 136.76 115.539 135.81 116.709 135.81C117.879 135.81 118.829 136.76 118.829 137.93Z" fill="white"/>
<path d="M137.929 137.93C137.929 139.1 136.979 140.05 135.809 140.05C134.639 140.05 133.689 139.1 133.689 137.93C133.689 136.76 134.639 135.81 135.809 135.81C136.979 135.81 137.929 136.76 137.929 137.93Z" fill="white"/>
<path d="M157.029 137.93C157.029 139.1 156.079 140.05 154.909 140.05C153.739 140.05 152.789 139.1 152.789 137.93C152.789 136.76 153.739 135.81 154.909 135.81C156.079 135.81 157.029 136.76 157.029 137.93Z" fill="white"/>
<path d="M176.129 137.93C176.129 139.1 175.179 140.05 174.009 140.05C172.839 140.05 171.889 139.1 171.889 137.93C171.889 136.76 172.839 135.81 174.009 135.81C175.179 135.81 176.129 136.76 176.129 137.93Z" fill="white"/>
<path d="M195.229 137.93C195.229 139.1 194.279 140.05 193.109 140.05C191.939 140.05 190.989 139.1 190.989 137.93C190.989 136.76 191.939 135.81 193.109 135.81C194.279 135.81 195.229 136.76 195.229 137.93Z" fill="white"/>
<path d="M2.11914 157.03C3.28998 157.03 4.23914 156.081 4.23914 154.91C4.23914 153.739 3.28998 152.79 2.11914 152.79C0.948297 152.79 -0.000854492 153.739 -0.000854492 154.91C-0.000854492 156.081 0.948297 157.03 2.11914 157.03Z" fill="white"/>
<path d="M21.2191 157.03C22.39 157.03 23.3391 156.081 23.3391 154.91C23.3391 153.739 22.39 152.79 21.2191 152.79C20.0483 152.79 19.0991 153.739 19.0991 154.91C19.0991 156.081 20.0483 157.03 21.2191 157.03Z" fill="white"/>
<path d="M40.3192 157.03C41.4901 157.03 42.4392 156.081 42.4392 154.91C42.4392 153.739 41.4901 152.79 40.3192 152.79C39.1484 152.79 38.1992 153.739 38.1992 154.91C38.1992 156.081 39.1484 157.03 40.3192 157.03Z" fill="white"/>
<path d="M59.4191 157.03C60.59 157.03 61.5391 156.081 61.5391 154.91C61.5391 153.739 60.59 152.79 59.4191 152.79C58.2483 152.79 57.2991 153.739 57.2991 154.91C57.2991 156.081 58.2483 157.03 59.4191 157.03Z" fill="white"/>
<path d="M80.6392 154.91C80.6392 156.08 79.6892 157.03 78.5192 157.03C77.3492 157.03 76.3992 156.08 76.3992 154.91C76.3992 153.74 77.3492 152.79 78.5192 152.79C79.6892 152.79 80.6392 153.74 80.6392 154.91Z" fill="white"/>
<path d="M97.6091 157.03C98.78 157.03 99.7292 156.081 99.7292 154.91C99.7292 153.739 98.78 152.79 97.6091 152.79C96.4383 152.79 95.4891 153.739 95.4891 154.91C95.4891 156.081 96.4383 157.03 97.6091 157.03Z" fill="white"/>
<path d="M116.709 157.03C117.88 157.03 118.829 156.081 118.829 154.91C118.829 153.739 117.88 152.79 116.709 152.79C115.538 152.79 114.589 153.739 114.589 154.91C114.589 156.081 115.538 157.03 116.709 157.03Z" fill="white"/>
<path d="M135.809 157.03C136.98 157.03 137.929 156.081 137.929 154.91C137.929 153.739 136.98 152.79 135.809 152.79C134.638 152.79 133.689 153.739 133.689 154.91C133.689 156.081 134.638 157.03 135.809 157.03Z" fill="white"/>
<path d="M154.909 157.03C156.08 157.03 157.029 156.081 157.029 154.91C157.029 153.739 156.08 152.79 154.909 152.79C153.738 152.79 152.789 153.739 152.789 154.91C152.789 156.081 153.738 157.03 154.909 157.03Z" fill="white"/>
<path d="M174.009 157.03C175.18 157.03 176.129 156.081 176.129 154.91C176.129 153.739 175.18 152.79 174.009 152.79C172.838 152.79 171.889 153.739 171.889 154.91C171.889 156.081 172.838 157.03 174.009 157.03Z" fill="white"/>
<path d="M193.109 157.03C194.28 157.03 195.229 156.081 195.229 154.91C195.229 153.739 194.28 152.79 193.109 152.79C191.938 152.79 190.989 153.739 190.989 154.91C190.989 156.081 191.938 157.03 193.109 157.03Z" fill="white"/>
<path d="M2.11914 174.01C3.28998 174.01 4.23914 173.061 4.23914 171.89C4.23914 170.719 3.28998 169.77 2.11914 169.77C0.948297 169.77 -0.000854492 170.719 -0.000854492 171.89C-0.000854492 173.061 0.948297 174.01 2.11914 174.01Z" fill="white"/>
<path d="M21.2191 174.01C22.39 174.01 23.3391 173.061 23.3391 171.89C23.3391 170.719 22.39 169.77 21.2191 169.77C20.0483 169.77 19.0991 170.719 19.0991 171.89C19.0991 173.061 20.0483 174.01 21.2191 174.01Z" fill="white"/>
<path d="M40.3192 174.01C41.4901 174.01 42.4392 173.061 42.4392 171.89C42.4392 170.719 41.4901 169.77 40.3192 169.77C39.1484 169.77 38.1992 170.719 38.1992 171.89C38.1992 173.061 39.1484 174.01 40.3192 174.01Z" fill="white"/>
<path d="M59.4191 174.01C60.59 174.01 61.5391 173.061 61.5391 171.89C61.5391 170.719 60.59 169.77 59.4191 169.77C58.2483 169.77 57.2991 170.719 57.2991 171.89C57.2991 173.061 58.2483 174.01 59.4191 174.01Z" fill="white"/>
<path d="M80.6392 171.89C80.6392 173.06 79.6892 174.01 78.5192 174.01C77.3492 174.01 76.3992 173.06 76.3992 171.89C76.3992 170.72 77.3492 169.77 78.5192 169.77C79.6892 169.76 80.6392 170.71 80.6392 171.89Z" fill="white"/>
<path d="M97.6091 174.01C98.78 174.01 99.7292 173.061 99.7292 171.89C99.7292 170.719 98.78 169.77 97.6091 169.77C96.4383 169.77 95.4891 170.719 95.4891 171.89C95.4891 173.061 96.4383 174.01 97.6091 174.01Z" fill="white"/>
<path d="M116.709 174.01C117.88 174.01 118.829 173.061 118.829 171.89C118.829 170.719 117.88 169.77 116.709 169.77C115.538 169.77 114.589 170.719 114.589 171.89C114.589 173.061 115.538 174.01 116.709 174.01Z" fill="white"/>
<path d="M135.809 174.01C136.98 174.01 137.929 173.061 137.929 171.89C137.929 170.719 136.98 169.77 135.809 169.77C134.638 169.77 133.689 170.719 133.689 171.89C133.689 173.061 134.638 174.01 135.809 174.01Z" fill="white"/>
<path d="M154.909 174.01C156.08 174.01 157.029 173.061 157.029 171.89C157.029 170.719 156.08 169.77 154.909 169.77C153.738 169.77 152.789 170.719 152.789 171.89C152.789 173.061 153.738 174.01 154.909 174.01Z" fill="white"/>
<path d="M174.009 174.01C175.18 174.01 176.129 173.061 176.129 171.89C176.129 170.719 175.18 169.77 174.009 169.77C172.838 169.77 171.889 170.719 171.889 171.89C171.889 173.061 172.838 174.01 174.009 174.01Z" fill="white"/>
<path d="M193.109 174.01C194.28 174.01 195.229 173.061 195.229 171.89C195.229 170.719 194.28 169.77 193.109 169.77C191.938 169.77 190.989 170.719 190.989 171.89C190.989 173.061 191.938 174.01 193.109 174.01Z" fill="white"/>
<path d="M4.23914 188.86C4.23914 190.03 3.28914 190.98 2.11914 190.98C0.949141 190.98 -0.000854492 190.03 -0.000854492 188.86C-0.000854492 187.69 0.949141 186.74 2.11914 186.74C3.28914 186.74 4.23914 187.69 4.23914 188.86Z" fill="white"/>
<path d="M23.3391 188.86C23.3391 190.03 22.3891 190.98 21.2191 190.98C20.0491 190.98 19.0991 190.03 19.0991 188.86C19.0991 187.69 20.0491 186.74 21.2191 186.74C22.3891 186.74 23.3391 187.69 23.3391 188.86Z" fill="white"/>
<path d="M42.4392 188.86C42.4392 190.03 41.4892 190.98 40.3192 190.98C39.1492 190.98 38.1992 190.03 38.1992 188.86C38.1992 187.69 39.1492 186.74 40.3192 186.74C41.4892 186.74 42.4392 187.69 42.4392 188.86Z" fill="white"/>
<path d="M61.5391 188.86C61.5391 190.03 60.5891 190.98 59.4191 190.98C58.2491 190.98 57.2991 190.03 57.2991 188.86C57.2991 187.69 58.2491 186.74 59.4191 186.74C60.5891 186.74 61.5391 187.69 61.5391 188.86Z" fill="white"/>
<path d="M80.6392 188.86C80.6392 190.03 79.6892 190.98 78.5192 190.98C77.3492 190.98 76.3992 190.03 76.3992 188.86C76.3992 187.69 77.3492 186.74 78.5192 186.74C79.6892 186.74 80.6392 187.69 80.6392 188.86Z" fill="white"/>
<path d="M99.7391 188.86C99.7391 190.03 98.7891 190.98 97.6191 190.98C96.4491 190.98 95.4991 190.03 95.4991 188.86C95.4991 187.69 96.4491 186.74 97.6191 186.74C98.7791 186.74 99.7391 187.69 99.7391 188.86Z" fill="white"/>
<path d="M118.829 188.86C118.829 190.03 117.879 190.98 116.709 190.98C115.539 190.98 114.589 190.03 114.589 188.86C114.589 187.69 115.539 186.74 116.709 186.74C117.879 186.74 118.829 187.69 118.829 188.86Z" fill="white"/>
<path d="M137.929 188.86C137.929 190.03 136.979 190.98 135.809 190.98C134.639 190.98 133.689 190.03 133.689 188.86C133.689 187.69 134.639 186.74 135.809 186.74C136.979 186.74 137.929 187.69 137.929 188.86Z" fill="white"/>
<path d="M157.029 188.86C157.029 190.03 156.079 190.98 154.909 190.98C153.739 190.98 152.789 190.03 152.789 188.86C152.789 187.69 153.739 186.74 154.909 186.74C156.079 186.74 157.029 187.69 157.029 188.86Z" fill="white"/>
<path d="M176.129 188.86C176.129 190.03 175.179 190.98 174.009 190.98C172.839 190.98 171.889 190.03 171.889 188.86C171.889 187.69 172.839 186.74 174.009 186.74C175.179 186.74 176.129 187.69 176.129 188.86Z" fill="white"/>
<path d="M195.229 188.86C195.229 190.03 194.279 190.98 193.109 190.98C191.939 190.98 190.989 190.03 190.989 188.86C190.989 187.69 191.939 186.74 193.109 186.74C194.279 186.74 195.229 187.69 195.229 188.86Z" fill="white"/>
</svg>
